<svg version="1.1" id="Layer_1" xmlns="http://www.w3.org/2000/svg" 
	 width="1024px" height="1024px" viewBox="0 0 1024 1024" style="enable-background:new 0 0 1024 1024;" xml:space="preserve">
<style type="text/css">
	.st0{fill:url(#SVGID_1_);}
</style>
<linearGradient id="SVGID_1_" gradientUnits="userSpaceOnUse" x1="-0.052578" y1="-229.881393" x2="1022.115906" y2="792.287109" gradientTransform="matrix(1 0 0 1 0 232)">
	<stop  offset="0" style="stop-color:#B07D37"/>
	<stop  offset="0.5" style="stop-color:#FFDB88"/>
	<stop  offset="1" style="stop-color:#B07D37"/>
</linearGradient>
<path class="st0" d="M1019.924438,108.165733c-0.48822,55.997643,0.335938,87.708702,0.653137,131.952515
	c0.120605,34.250427,0.186584,53.04657,0.105164,77.570648c-0.253967,29.746124-0.426086,49.864502-0.654297,76.592194
	c0.004089,7.891083,0.007935,15.142914,0.011841,22.068024c-0.196838,13.633209-0.326843,25.46991-0.22052,33.854431
	c-0.209229,30.69577,0.059875,48.923645,0.106506,78.577515c-0.306824,35.932739-0.036438,57.004822,0.506348,93.674683
	c0.312927,21.14502,0.277893,34.964905,0.057129,42.311523c0.066711,3.952881,0.143616,8.533936,0.226929,13.501404
	c-0.512268,22.162354-1.105591,45.717224-1.245605,61.774658c-0.488647,55.997864,0.335876,87.708313,0.653137,131.952332
	c0.120667,34.25061,0.186462,53.046387,0.105164,77.570862c-0.108765,13.755432-0.201538,25.450928-0.290833,36.737549
	c-0.10968,10.765991-0.215454,21.139099-0.333008,32.691467c-0.833618-0.012695-1.856812-0.027466-2.900085-0.042786
	c-5.705383,0.00592-10.948303,0.011719-15.955444,0.016663c-9.854492-0.272217-18.4104-0.452393-24.470825-0.305237
	c-22.190552-0.288879-35.367371,0.083069-56.804504,0.147583c-21.680298-0.35437-35.898193-0.151428-55.412964,0.361633
	c-11.916504-0.529907-23.474915-1.017822-32.06012-1.160706c-40.480957-0.675903-63.404846,0.464478-95.38916,0.903198
	c-24.759827,0.166931-38.34729,0.25824-56.075562,0.145264c-21.503723-0.351074-36.047913-0.588989-55.369385-0.905151
	c-5.704224,0.006287-10.946655,0.011292-15.952881,0.016663c-9.854919-0.272217-18.412415-0.451782-24.473328-0.305237
	c-22.19043-0.28894-35.366943,0.082886-56.80426,0.147766c-25.975616-0.424805-41.209137-0.050659-67.717529,0.700256
	c-15.285858,0.433167-25.276184,0.38446-30.587402,0.079224c-2.857819,0.091675-6.170105,0.198364-9.761658,0.31366
	c-16.020752-0.708679-33.048096-1.529236-44.655487-1.723206c-40.481293-0.675354-63.405212,0.464661-95.389313,0.903809
	c-24.759644,0.166321-38.347229,0.257629-56.076019,0.145447c-21.50351-0.351685-36.047241-0.5896-55.368896-0.905579
	c-5.705139,0.005981-10.948288,0.011353-15.955643,0.016724c-9.854507-0.272278-18.410141-0.452393-24.470787-0.30542
	c-22.190163-0.28894-35.366989,0.083252-56.80407,0.147705c-12.987915-0.212219-23.290085-0.22522-33.658936-0.090576
	c-5.183514,0.098999-10.384331,0.198364-15.947226,0.304871c-5.171682,0.149048-10.67905,0.308105-16.84256,0.485962
	c-0.164996,0.010742-0.328865,0.021301-0.448802,0.028992c-0.017293-0.593201-0.034137-1.169189-0.050519-1.729553
	c-0.014566-1.116211-0.028903-2.201355-0.042783-3.25824c-0.022539-2.348877-0.043705-4.572632-0.064185-6.697937
	c0.421716-53.720581-0.370059-85.0625-0.680032-128.326111c-0.120615-34.250427-0.186849-53.046021-0.105596-77.570129
	c0.25467-29.746094,0.426499-49.865051,0.654994-76.592773c-0.004549-7.891846-0.008421-15.144592-0.012294-22.070862
	c0.196866-13.63208,0.32705-25.467407,0.220758-33.850952c0.209153-30.695984-0.060078-48.923706-0.106733-78.577881
	c0.307013-35.93219,0.037097-57.004883-0.50638-93.674744c-0.312933-21.144623-0.277885-34.964508-0.057126-42.311096
	c-0.066459-3.953125-0.143379-8.53418-0.22668-13.501404c0.512073-22.162598,1.105393-45.717255,1.245362-61.774902
	c0.488625-55.997253-0.335697-87.708496-0.652946-131.952499c-0.120399-34.250443-0.186623-53.046188-0.105379-77.570465
	c0.254443-29.746124,0.426272-49.864891,0.654767-76.592018C4.41359,84.17289,4.409492,76.920296,4.405855,69.994431
	c0.196633-13.631866,0.327041-25.467812,0.220758-33.850983c0.027078-6.545233,0.052117-12.522581,0.075098-18.105095
	C4.696484,13.539992,4.692152,9.359724,4.687377,5.359222c9.752315-0.075207,18.677357-0.143697,30.133625-0.231758
	c21.680141,0.35435,35.89793,0.151179,55.413029-0.361643c11.916451,0.530282,23.474449,1.017395,32.059677,1.160707
	c40.481316,0.675895,63.404991-0.464475,95.389336-0.903431c24.759613-0.166912,38.347229-0.258041,56.076019-0.145424
	c21.503296,0.351664,36.047241,0.589369,55.368866,0.905158c5.704254-0.005564,10.946747-0.011318,15.952942-0.0165
	c9.855408,0.272047,18.412231,0.452198,24.473541,0.30543c22.189911,0.288928,35.366943-0.083264,56.804047-0.147344
	c25.97583,0.424377,41.209137,0.050649,67.717743-0.700644c15.285858-0.433203,25.27597-0.38447,30.587189-0.079234
	c2.857849-0.09209,6.170105-0.198375,9.761658-0.31368c16.020752,0.70851,33.048096,1.529254,44.655701,1.723025
	c40.480835,0.675895,63.405029-0.464475,95.388855-0.903242c24.760132-0.16691,38.347473-0.258041,56.076477-0.145998
	c21.503113,0.352049,36.047241,0.589754,55.368408,0.905734c5.705383-0.005947,10.948364-0.011318,15.955688-0.016691
	c9.854248,0.272238,18.410156,0.452387,24.470764,0.305238c22.19043,0.289121,35.367249-0.083072,56.804321-0.147727
	c25.975586,0.424953,41.209106,0.051225,67.717957-0.700453c15.285645-0.432818,25.275818-0.384088,30.586731-0.079234
	c9.624451-0.306006,23.955383-0.711006,39.294739-1.675639c-8.673157-1.392079-15.878113-1.962072-23.351807-2.300308
	c-16.717407-0.756856-33.869263-0.174394-54.619263,0.141779c-35.171204,0.536035-64.822327,0.076357-91.506897,0.233292
	c-6.100891-0.266291-12.207275-0.389076-18.835083-0.471573c-28.711365-0.356078-56.122375,0.483467-72.100647,0.056405
	c-14.797852-0.396176-25.851807-0.433778-37.874695-0.164227c-17.637329-0.167103-33.26886,0.383896-45.146851,0.379484
	C633.24707,1.95365,609.591003,0.721,568.043945,0.942781c-6.908386,0.036836-14.053955,0.249601-21.514404,0.558866
	c-1.97937-0.111274-3.944397-0.222165-5.923462-0.333439c-16.717346-0.75724-33.869446-0.174394-54.61969,0.141779
	c-35.171234,0.535843-64.822845,0.076165-91.508026,0.232909c-6.10025-0.266291-12.206421-0.388884-18.83374-0.470805
	c-28.710754-0.356461-56.122406,0.482699-72.100616,0.055829c-14.797668-0.395984-25.85202-0.433778-37.874512-0.164034
	c-17.637512-0.167104-33.269058,0.384088-45.147308,0.379676c-27.7444-0.010552-47.401733-0.503228-68.525436-0.811151
	l-2.928131-0.160964c-16.717606-0.756665-33.869446-0.174202-54.619446,0.141971
	C76.863312,0.781243,60.657551,0.800237,45.512794,0.771843C30.023922,0.762826,15.620646,0.754576,1.974539,0.746325
	c-0.20574-0.006139-0.411706-0.01247-0.635651-0.019185c-0.069636,4.63208-0.13882,9.270683-0.210289,14.010969
	c-0.037773,4.209623-0.076233,8.509031-0.116292,12.980148c-0.257631,39.71629,0.349346,77.634155,0.040283,99.737091
	c-0.286307,20.470039-0.313385,35.761055-0.118575,52.392921c-0.121074,24.397659,0.277659,46.020935,0.274239,62.451935
	c-0.011833,60.951813-0.903058,93.674896-0.742609,151.147308c0.0264,9.556946,0.180017,19.441345,0.403962,29.762421
	c-0.080567,2.737152-0.160899,5.455505-0.24124,8.192871c-0.546889,23.125488-0.126085,46.851837,0.102644,75.556213
	c0.387119,48.651764,0.054844,89.668854,0.168409,126.581573c-0.192535,8.439819-0.281297,16.886475-0.340698,26.055298
	c-0.257623,39.715881,0.349578,77.634521,0.040518,99.737061c-0.286308,20.469482-0.313619,35.761047-0.118575,52.392273
	c-0.12085,24.398315,0.277659,46.021179,0.274473,62.452209c-0.005921,29.554077-0.21872,52.471558-0.417627,74.841125
	c-0.086253,11.185608-0.171603,22.233215-0.261268,33.904175C0.052802,995.658447,0.027765,1009.072754,0,1024
	c1.617687-0.004395,3.752674-0.010376,5.916113-0.016296c16.479336-0.088074,34.25021-1.150574,54.716621-2.23645
	c15.08287,0.007507,29.106522,0.014771,42.396011,0.021667c6.100914,0.266113,12.207283,0.389099,18.835297,0.471191
	c28.711212,0.356079,56.122192-0.483826,72.100372-0.055969c14.797684,0.395752,25.852051,0.433777,37.874771,0.164001
	c17.637283,0.166931,33.269089-0.384094,45.147049-0.379639c44.062164,0.016663,67.718201,1.250061,109.265289,1.027527
	c6.908417-0.036804,14.053711-0.249207,21.514221-0.558655c1.979095,0.111633,3.944336,0.221985,5.923615,0.333618
	c16.717651,0.756836,33.869232,0.174011,54.619476-0.141785c35.171448-0.536194,64.823059-0.076172,91.508057-0.233276
	c6.100281,0.266296,12.20636,0.389282,18.833679,0.471558c28.711243,0.355713,56.122498-0.483459,72.100647-0.056213
	c14.797913,0.395996,25.85199,0.433594,37.875,0.164246c17.637024,0.16687,33.268616-0.384277,45.14679-0.379883
	c27.744934,0.010559,47.401733,0.502869,68.525879,0.811157l2.927917,0.160583
	c16.717651,0.756714,33.869507,0.174561,54.619507-0.141418c35.171509-0.536194,64.823059-0.076355,91.508301-0.233459
	c6.100708,0.266479,12.206116,0.389038,18.833862,0.471375c9.195679,0.114136,18.25824,0.105713,26.809753,0.05542
	c9.320374-0.070801,18.084961-0.13678,25.881042-0.195496c-0.010071-7.006226-0.019226-13.455566-0.027344-19.326416
	c0.032654-4.973022,0.061829-9.454102,0.088013-13.428711c0.286316-20.469849,0.313843-35.761047,0.118591-52.392883
	c0.121033-24.397461-0.277466-46.020935-0.274292-62.451965c0.012085-60.951843,0.903748-93.675293,0.743103-151.147888
	c-0.026611-9.556519-0.180725-19.440979-0.403931-29.762207c0.080261-2.737,0.1604-5.455505,0.240784-8.192871
	c0.547546-23.125305,0.126038-46.851868-0.102478-75.555664c-0.387329-48.651978-0.05481-89.669006-0.168396-126.581787
	c0.192505-8.439758,0.281311-16.886627,0.340759-26.055267c0.257568-39.716095-0.349365-77.633942-0.040771-99.737061
	c0.286255-20.469666,0.313538-35.760864,0.11853-52.392334c0.12085-24.397858-0.277405-46.021545-0.273987-62.452133
	c0.012085-60.952026,0.903259-93.67511,0.742798-151.148285c-0.074402-26.712944-1.115845-55.832653-2.01886-90.594162
	C1021.817749,28.557035,1020.170959,79.947723,1019.924438,108.165733z"/>
</svg>
